# xmcd CD database file
#
# Track frame offsets:
#	150
#	20109
#	32445
#	44373
#	59621
#	72740
#	87836
#	104148
#	117369
#	130992
#	141266
#	154816
#	168626
#	185399
#	201702
#	214577
#	233124
#	240895
#
# Disc length: 3380 seconds
#
# Revision: 1
# Processed by: cddbd v1.5.2PL0 Copyright (c) Steve Scherf et al.
# Submitted via: CDex 1.70beta2
#
DISCID=120d3212
DTITLE=Jazz manouche - Jazz manouche vol. 3 CD2
DYEAR=2007
DGENRE=Jazz
TTITLE0=Tchavolo Schmitt_All of me
TTITLE1=Biréli Lagrène_Viper's dream
TTITLE2=Samson Schmitt Quintet Featuring Dorado Schmitt_For Smilia
TTITLE3=Romane_Gypsy fire
TTITLE4=Django Reinhardt_Shine
TTITLE5=Angelo Debarre_Appel indirect
TTITLE6=Gypsy Guitars_La gitane
TTITLE7=The Rosenberg Trio_Caravan
TTITLE8=John Jorgenson_F.A. swing alt
TTITLE9=Jo Privat_La zingara
TTITLE10=Mouloudji_Mon pot' le gitan
TTITLE11=Gus Viseur_Douce joie
TTITLE12=Thomas Dutronc, Pierre Blanchard and Ninine_Veish a no drom
TTITLE13=Henri crolla_Minor swing
TTITLE14=Moreno_Milko
TTITLE15=Sanseverino_Mitcho la pompe
TTITLE16=Jacques Dutronc_A toute berzingue
TTITLE17=Django Reinhardt_Miss Annabel Lee
EXTD=YEAR: 2007
EXTT0=
EXTT1=
EXTT2=
EXTT3=
EXTT4=
EXTT5=
EXTT6=
EXTT7=
EXTT8=
EXTT9=
EXTT10=
EXTT11=
EXTT12=
EXTT13=
EXTT14=
EXTT15=
EXTT16=
EXTT17=
PLAYORDER=
